<svg width="25" height="25" viewBox="0 0 25 25" fill="none" xmlns="http://www.w3.org/2000/svg">
<rect width="25" height="25" fill="#14B9D5"/>
<path d="M6.7167 18.0002C6.7167 18.1745 6.84358 18.3159 7.00009 18.3159H9.55064C9.70716 18.3159 9.83404 18.1745 9.83404 18.0002C9.83404 17.8258 9.70716 17.6844 9.55064 17.6844H7.28349V15.1586C7.28349 14.9842 7.15661 14.8428 7.00009 14.8428C6.84358 14.8428 6.7167 14.9842 6.7167 15.1586V18.0002ZM10.0908 14.1102L6.7997 17.7769L7.20048 18.2234L10.4916 14.5568L10.0908 14.1102Z" fill="#F8FCFE"/>
<path d="M6.99984 6.68457C6.84332 6.68463 6.7165 6.82604 6.71657 7.00041L6.71768 9.84201C6.71774 10.0164 6.84468 10.1577 7.00119 10.1576C7.15771 10.1576 7.28453 10.0162 7.28446 9.84179L7.28348 7.31592L9.55063 7.31504C9.70715 7.31498 9.83397 7.17357 9.8339 6.99919C9.83384 6.82482 9.7069 6.68351 9.55039 6.68357L6.99984 6.68457ZM10.4927 10.4422L7.20026 6.77697L6.79966 7.22364L10.0921 10.8889L10.4927 10.4422Z" fill="#F8FCFE"/>
<path d="M18.2538 6.99984C18.2538 6.82546 18.1269 6.6841 17.9704 6.6841H15.4199C15.2634 6.6841 15.1365 6.82546 15.1365 6.99984C15.1365 7.17421 15.2634 7.31557 15.4199 7.31557H17.687V9.84144C17.687 10.0158 17.8139 10.1572 17.9704 10.1572C18.1269 10.1572 18.2538 10.0158 18.2538 9.84144V6.99984ZM14.8797 10.8898L18.1708 7.22309L17.77 6.77658L14.4789 10.4432L14.8797 10.8898Z" fill="#F8FCFE"/>
<path d="M18.0029 18.2825C18.1594 18.2811 18.285 18.1386 18.2834 17.9643L18.2578 15.1228C18.2563 14.9485 18.1281 14.8082 17.9716 14.8096C17.8151 14.8111 17.6895 14.9535 17.6911 15.1279L17.7138 17.6537L15.4467 17.6741C15.2902 17.6755 15.1646 17.818 15.1662 17.9923C15.1677 18.1667 15.2959 18.3069 15.4524 18.3055L18.0029 18.2825ZM14.4809 14.5585L17.8016 18.1919L18.1984 17.7418L14.8776 14.1084L14.4809 14.5585Z" fill="#F8FCFE"/>
</svg>
